<svg width="135" height="40" viewBox="0 0 135 40" fill="none" xmlns="http://www.w3.org/2000/svg">
<path d="M124.249 0.00013H10.7566C10.3429 0.00013 9.9342 0.00013 9.5216 0.00212999C9.17621 0.00412999 8.83358 0.00993997 8.48488 0.01483C7.72734 0.0227317 6.97157 0.081806 6.22416 0.191539C5.4778 0.303662 4.75482 0.515044 4.07967 0.818537C3.40534 1.1246 2.7892 1.52229 2.25358 1.99719C1.71514 2.47076 1.26632 3.01814 0.924356 3.61828C0.581453 4.21723 0.343683 4.85905 0.219258 5.52159C0.0936495 6.1833 0.0260586 6.85263 0.0170916 7.52359C0.00662229 7.83018 0.00551669 8.1378 0 8.44444V31.5586C0.00551669 31.8691 0.00662229 32.1699 0.0170916 32.4805C0.0260614 33.1514 0.0936522 33.8207 0.219258 34.4824C0.343339 35.1453 0.581124 35.7875 0.924356 36.3867C1.26616 36.9849 1.71505 37.5301 2.25358 38.001C2.78717 38.478 3.40371 38.876 4.07967 39.1797C4.75481 39.484 5.47772 39.6967 6.22416 39.8105C6.9717 39.9194 7.72738 39.9785 8.48488 39.9873C8.83358 39.9941 9.17621 39.998 9.5216 39.998C9.93419 40 10.343 40 10.7566 40H124.249C124.655 40 125.067 40 125.472 39.998C125.816 39.998 126.169 39.9941 126.512 39.9873C127.268 39.9789 128.023 39.9198 128.769 39.8105C129.518 39.6958 130.243 39.4833 130.921 39.1797C131.597 38.8758 132.213 38.4779 132.746 38.001C133.283 37.5282 133.733 36.9835 134.079 36.3867C134.42 35.7871 134.655 35.145 134.777 34.4824C134.903 33.8207 134.973 33.1515 134.987 32.4805C134.991 32.1699 134.991 31.8691 134.991 31.5586C135 31.1953 135 30.834 135 30.4648V9.53623C135 9.17002 135 8.80674 134.991 8.44444C134.991 8.1378 134.991 7.83018 134.987 7.52355C134.973 6.85253 134.903 6.18335 134.777 5.52155C134.655 4.8594 134.419 4.21762 134.079 3.61824C133.383 2.41532 132.278 1.43615 130.921 0.818447C130.243 0.515696 129.518 0.304369 128.769 0.191449C128.023 0.0812325 127.269 0.0221377 126.512 0.01469C126.169 0.00980997 125.816 0.00394999 125.472 0.00199999C125.067 0 124.655 0 124.249 0V0.00013Z" fill="#A6A6A6"/>
<path d="M9.41332 39.125C9.06967 39.125 8.73432 39.1211 8.39337 39.1143C7.68705 39.1061 6.98239 39.0516 6.28516 38.9512C5.63503 38.8519 5.00522 38.6673 4.41652 38.4033C3.83322 38.1415 3.3012 37.7983 2.84084 37.3867C2.37382 36.98 1.98501 36.5082 1.68981 35.9902C1.39135 35.4688 1.1848 34.9099 1.07736 34.333C0.961321 33.7131 0.898542 33.0863 0.889559 32.458C0.882408 32.2471 0.873047 31.5449 0.873047 31.5449V8.44434C0.873047 8.44434 0.883018 7.75293 0.889616 7.5498C0.898217 6.92248 0.960631 6.29665 1.07632 5.67773C1.18396 5.09925 1.39067 4.53875 1.68929 4.01563C1.9834 3.49794 2.37006 3.02586 2.83427 2.61768C3.29795 2.20562 3.83167 1.8606 4.41597 1.59521C5.00332 1.33209 5.63193 1.14873 6.28075 1.05127C6.98027 0.949836 7.68738 0.894996 8.39614 0.88721L9.41387 0.875H125.327L126.357 0.8877C127.059 0.895099 127.76 0.94945 128.453 1.05029C129.108 1.14898 129.743 1.33362 130.337 1.59814C131.508 2.13299 132.46 2.97916 133.061 4.01807C133.355 4.53758 133.559 5.09351 133.665 5.66699C133.782 6.29099 133.847 6.92174 133.861 7.5542C133.864 7.8374 133.864 8.1416 133.864 8.44434C133.873 8.81934 133.873 9.17627 133.873 9.53613V30.4648C133.873 30.8281 133.873 31.1826 133.864 31.54C133.864 31.8652 133.864 32.1631 133.86 32.4697C133.847 33.0909 133.782 33.7104 133.667 34.3232C133.562 34.9043 133.356 35.4675 133.058 35.9932C132.761 36.5056 132.374 36.9733 131.912 37.3789C131.452 37.7927 130.919 38.1379 130.334 38.4014C129.742 38.6674 129.107 38.8527 128.453 38.9512C127.756 39.0522 127.051 39.1067 126.344 39.1143C126.014 39.1211 125.668 39.125 125.332 39.125L124.11 39.127L9.41332 39.125Z" fill="black"/>
<path d="M25.5886 19.5707C25.5999 18.6898 25.8339 17.8261 26.2688 17.06C26.7036 16.2938 27.3252 15.6501 28.0757 15.1887C27.5989 14.5078 26.97 13.9475 26.2388 13.5522C25.5076 13.1569 24.6943 12.9375 23.8635 12.9115C22.0912 12.7255 20.3731 13.972 19.47 13.972C18.5494 13.972 17.1589 12.93 15.6616 12.9608C14.6931 12.9921 13.7492 13.2737 12.9219 13.7782C12.0946 14.2828 11.4121 14.993 10.9409 15.8397C8.89982 19.3736 10.4223 24.5672 12.3775 27.4238C13.3558 28.8225 14.4991 30.385 15.995 30.3296C17.4589 30.2689 18.0056 29.3961 19.7727 29.3961C21.5233 29.3961 22.0363 30.3296 23.5626 30.2943C25.1334 30.2688 26.1231 28.8894 27.067 27.4774C27.7699 26.4807 28.3107 25.3792 28.6695 24.2136C27.7569 23.8276 26.9781 23.1815 26.4303 22.3559C25.8824 21.5302 25.5897 20.5616 25.5886 19.5707V19.5707Z" fill="white"/>
<path d="M22.7057 11.0326C23.5622 10.0044 23.9841 8.68289 23.8819 7.34863C22.5734 7.48607 21.3647 8.11145 20.4967 9.10017C20.0723 9.58318 19.7472 10.1451 19.5401 10.7538C19.333 11.3625 19.2479 12.0061 19.2896 12.6477C19.9441 12.6545 20.5916 12.5126 21.1833 12.2328C21.775 11.9531 22.2956 11.5427 22.7057 11.0326Z" fill="white"/>
<path d="M44.5276 26.7685H39.4689L38.254 30.3109H36.1113L40.9029 17.2051H43.1291L47.9207 30.3109H45.7414L44.5276 26.7685ZM39.9928 25.1339H44.0027L42.026 19.3849H41.9706L39.9928 25.1339Z" fill="white"/>
<path d="M58.2689 25.5332C58.2689 28.5025 56.6595 30.4102 54.2308 30.4102C53.6156 30.442 53.0038 30.302 52.4653 30.0064C51.9269 29.7107 51.4837 29.2713 51.1864 28.7385H51.1404V33.4712H49.1543V20.7551H51.0768V22.3443H51.1133C51.4243 21.814 51.875 21.3769 52.4175 21.0794C52.9601 20.782 53.5741 20.6353 54.1943 20.6551C56.6501 20.6551 58.2689 22.5721 58.2689 25.5332ZM56.2274 25.5332C56.2274 23.5986 55.215 22.3268 53.6704 22.3268C52.1528 22.3268 51.1321 23.6254 51.1321 25.5332C51.1321 27.4584 52.1528 28.7478 53.6704 28.7478C55.215 28.7478 56.2274 27.4852 56.2274 25.5332Z" fill="white"/>
<path d="M68.9183 25.5332C68.9183 28.5025 67.3089 30.4102 64.8802 30.4102C64.265 30.442 63.6532 30.302 63.1147 30.0064C62.5763 29.7107 62.1331 29.2713 61.8358 28.7385H61.7899V33.4712H59.8037V20.755H61.7262V22.3443H61.7627C62.0737 21.814 62.5244 21.3769 63.0669 21.0794C63.6094 20.782 64.2235 20.6353 64.8437 20.6551C67.2995 20.6551 68.9183 22.5721 68.9183 25.5332ZM66.8768 25.5332C66.8768 23.5986 65.8644 22.3268 64.3198 22.3268C62.8023 22.3268 61.7815 23.6254 61.7815 25.5332C61.7815 27.4584 62.8023 28.7478 64.3198 28.7478C65.8644 28.7478 66.8768 27.4852 66.8768 25.5332H66.8768Z" fill="white"/>
<path d="M75.9579 26.6591C76.1051 27.9587 77.3836 28.8121 79.1308 28.8121C80.8048 28.8121 82.0092 27.9587 82.0092 26.7868C82.0092 25.7696 81.2828 25.1605 79.5628 24.743L77.8429 24.3339C75.4058 23.7526 74.2745 22.6271 74.2745 20.8008C74.2745 18.5395 76.27 16.9863 79.1036 16.9863C81.908 16.9863 83.8305 18.5395 83.8952 20.8008H81.8902C81.7702 19.4929 80.6754 18.7034 79.0754 18.7034C77.4754 18.7034 76.3806 19.5022 76.3806 20.6647C76.3806 21.5913 77.0799 22.1365 78.7905 22.5539L80.2527 22.9084C82.9757 23.5443 84.107 24.6245 84.107 26.5415C84.107 28.9934 82.1292 30.5291 78.9836 30.5291C76.0404 30.5291 74.0532 29.0295 73.9248 26.659L75.9579 26.6591Z" fill="white"/>
<path d="M88.3927 18.4941V20.7554H90.2327V22.3086H88.3927V27.5763C88.3927 28.3946 88.7611 28.7759 89.5699 28.7759C89.7884 28.7722 90.0065 28.757 90.2233 28.7306V30.2745C89.8596 30.3416 89.49 30.372 89.1201 30.3652C87.1611 30.3652 86.3971 29.6386 86.3971 27.7854V22.3086H84.9902V20.7554H86.3971V18.4941H88.3927Z" fill="white"/>
<path d="M91.2988 25.5333C91.2988 22.5269 93.0919 20.6377 95.8879 20.6377C98.6934 20.6377 100.478 22.5268 100.478 25.5333C100.478 28.548 98.7028 30.4289 95.8879 30.4289C93.0741 30.4289 91.2988 28.5479 91.2988 25.5333ZM98.4543 25.5333C98.4543 23.471 97.4973 22.2538 95.8879 22.2538C94.2786 22.2538 93.3225 23.4802 93.3225 25.5333C93.3225 27.6039 94.2786 28.8118 95.8879 28.8118C97.4973 28.8118 98.4543 27.6039 98.4543 25.5333H98.4543Z" fill="white"/>
<path d="M102.115 20.755H104.01V22.3813H104.055C104.184 21.8734 104.485 21.4245 104.909 21.1101C105.333 20.7957 105.853 20.635 106.383 20.655C106.612 20.6542 106.84 20.6787 107.063 20.7282V22.5627C106.774 22.4755 106.473 22.4355 106.171 22.4442C105.882 22.4326 105.595 22.4829 105.328 22.5915C105.061 22.7001 104.821 22.8644 104.624 23.0733C104.427 23.2821 104.279 23.5305 104.189 23.8014C104.099 24.0723 104.069 24.3592 104.101 24.6426V30.3101H102.115L102.115 20.755Z" fill="white"/>
<path d="M116.221 27.5039C115.953 29.2385 114.243 30.4289 112.054 30.4289C109.239 30.4289 107.492 28.5665 107.492 25.5786C107.492 22.5815 109.249 20.6377 111.971 20.6377C114.648 20.6377 116.331 22.4537 116.331 25.3509V26.0229H109.497V26.1414C109.466 26.493 109.51 26.8473 109.628 27.1806C109.746 27.514 109.934 27.8187 110.18 28.0747C110.426 28.3307 110.725 28.532 111.056 28.6653C111.387 28.7986 111.743 28.8609 112.1 28.8479C112.569 28.8913 113.04 28.784 113.443 28.5418C113.846 28.2997 114.158 27.9356 114.335 27.5039L116.221 27.5039ZM109.507 24.6521H114.344C114.362 24.3359 114.313 24.0195 114.201 23.7227C114.09 23.4259 113.917 23.1552 113.694 22.9274C113.471 22.6997 113.203 22.52 112.906 22.3994C112.61 22.2789 112.291 22.2202 111.971 22.227C111.647 22.2251 111.327 22.2864 111.027 22.4075C110.728 22.5286 110.456 22.707 110.227 22.9325C109.998 23.158 109.816 23.426 109.693 23.7212C109.569 24.0163 109.506 24.3327 109.507 24.6521V24.6521Z" fill="white"/>
<path d="M39.3326 6.77051C39.7543 6.74025 40.1774 6.80395 40.5715 6.95702C40.9655 7.11009 41.3207 7.34871 41.6114 7.65567C41.9021 7.96263 42.121 8.33028 42.2524 8.7321C42.3838 9.13391 42.4244 9.55988 42.3712 9.97928C42.3712 12.0424 41.2562 13.2283 39.3326 13.2283H37V6.77051H39.3326ZM38.003 12.315H39.2206C39.5219 12.333 39.8234 12.2836 40.1032 12.1704C40.383 12.0572 40.6341 11.883 40.8381 11.6605C41.0421 11.438 41.1939 11.1728 41.2825 10.8843C41.3711 10.5957 41.3942 10.2911 41.3502 9.99244C41.391 9.69499 41.3655 9.3922 41.2756 9.10577C41.1856 8.81933 41.0334 8.55633 40.8299 8.33562C40.6264 8.11491 40.3765 7.94196 40.0983 7.82915C39.8201 7.71633 39.5203 7.66646 39.2206 7.6831H38.003V12.315Z" fill="white"/>
<path d="M47.8671 11.9115C47.7364 12.3569 47.4533 12.7421 47.0673 12.9999C46.6812 13.2576 46.2169 13.3714 45.7554 13.3214C45.4343 13.3299 45.1153 13.2684 44.8203 13.1412C44.5254 13.014 44.2617 12.8241 44.0475 12.5848C43.8333 12.3454 43.6738 12.0624 43.5799 11.7552C43.4861 11.448 43.4603 11.1241 43.5042 10.8059C43.4614 10.4868 43.4877 10.1622 43.5813 9.85409C43.6749 9.546 43.8337 9.26161 44.0467 9.02018C44.2598 8.77876 44.5222 8.58593 44.8163 8.45475C45.1104 8.32357 45.4292 8.2571 45.7512 8.25985C47.1072 8.25985 47.9252 9.18627 47.9252 10.7166V11.0522H44.484V11.1061C44.4689 11.285 44.4914 11.465 44.55 11.6346C44.6086 11.8043 44.7019 11.9598 44.8241 12.0912C44.9463 12.2227 45.0947 12.3272 45.2596 12.3979C45.4245 12.4687 45.6024 12.5042 45.7819 12.5022C46.0119 12.5299 46.245 12.4884 46.4515 12.3832C46.6579 12.278 46.8284 12.1138 46.9413 11.9114L47.8671 11.9115ZM44.4839 10.3409H46.9454C46.9576 10.1773 46.9353 10.0131 46.8802 9.8586C46.825 9.70414 46.7382 9.56292 46.6252 9.44403C46.5122 9.32513 46.3756 9.23118 46.2242 9.16822C46.0728 9.10526 45.9098 9.07468 45.7459 9.07844C45.5795 9.07635 45.4144 9.10759 45.2604 9.17031C45.1063 9.23302 44.9663 9.32595 44.8487 9.4436C44.7311 9.56126 44.6383 9.70127 44.5756 9.85537C44.513 10.0095 44.4818 10.1746 44.484 10.3409H44.4839Z" fill="white"/>
<path d="M50.9982 8.26074C52.0942 8.26074 52.8108 8.7707 52.9048 9.62997H51.9822C51.8934 9.2722 51.5435 9.04392 50.9982 9.04392C50.4613 9.04392 50.0534 9.29863 50.0534 9.67911C50.0534 9.97025 50.2996 10.1537 50.8281 10.2747L51.6376 10.4623C52.5645 10.6774 52.9989 11.0758 52.9989 11.7919C52.9989 12.7093 52.1439 13.3223 50.9802 13.3223C49.8208 13.3223 49.0651 12.7986 48.9795 11.9351H49.9423C50.0253 12.1406 50.1749 12.3123 50.3672 12.4226C50.5594 12.5329 50.7831 12.5754 51.0024 12.5433C51.6017 12.5433 52.0276 12.2749 52.0276 11.8854C52.0276 11.5947 51.7993 11.4066 51.311 11.2904L50.4613 11.0932C49.5344 10.8739 49.1053 10.458 49.1053 9.733C49.1053 8.86899 49.8969 8.26074 50.9982 8.26074Z" fill="white"/>
<path d="M57.4846 9.94734C57.4233 9.69463 57.2735 9.47224 57.0624 9.32043C56.8512 9.16862 56.5927 9.09744 56.3337 9.11978C55.5283 9.11978 55.0358 9.73701 55.0358 10.7754C55.0358 11.8318 55.5325 12.4628 56.3337 12.4628C56.5902 12.4925 56.8487 12.4275 57.0607 12.28C57.2727 12.1324 57.4234 11.9125 57.4846 11.6617H58.42C58.3581 12.1551 58.1059 12.6049 57.7172 12.9151C57.3284 13.2253 56.8338 13.3713 56.3389 13.3221C56.0131 13.3323 55.6889 13.2713 55.3891 13.1432C55.0893 13.0152 54.8211 12.8231 54.6032 12.5806C54.3854 12.338 54.2232 12.0508 54.1279 11.739C54.0327 11.4272 54.0067 11.0984 54.0518 10.7755C54.009 10.455 54.0366 10.129 54.1328 9.82024C54.2289 9.51151 54.3913 9.2275 54.6086 8.98802C54.8259 8.74855 55.0928 8.55939 55.3908 8.43374C55.6887 8.30809 56.0105 8.24899 56.3337 8.26055C56.8326 8.2146 57.3298 8.36515 57.7195 8.68018C58.1091 8.99522 58.3604 9.44986 58.42 9.94737L57.4846 9.94734Z" fill="white"/>
<path d="M59.375 11.8495C59.375 10.9722 60.0282 10.4665 61.1876 10.3946L62.5077 10.3185V9.89788C62.5077 9.38316 62.1674 9.09252 61.51 9.09252C60.9731 9.09252 60.601 9.28963 60.4943 9.63419H59.5631C59.6614 8.79711 60.4488 8.26021 61.5543 8.26021C62.7761 8.26021 63.4652 8.86845 63.4652 9.89788V13.2277H62.5394V12.5428H62.4633C62.3088 12.7885 62.0919 12.9887 61.8348 13.1232C61.5776 13.2576 61.2893 13.3214 60.9995 13.308C60.7949 13.3292 60.5881 13.3074 60.3925 13.2439C60.1968 13.1804 60.0167 13.0765 59.8636 12.9391C59.7106 12.8017 59.588 12.6337 59.5039 12.4461C59.4197 12.2584 59.3758 12.0551 59.375 11.8495V11.8495ZM62.5077 11.433V11.0256L61.3176 11.1017C60.6465 11.1466 60.3421 11.3749 60.3421 11.8045C60.3421 12.2431 60.7225 12.4984 61.2458 12.4984C61.3991 12.5139 61.5539 12.4984 61.7011 12.4529C61.8483 12.4073 61.9848 12.3326 62.1026 12.2332C62.2203 12.1338 62.3168 12.0118 62.3864 11.8743C62.456 11.7368 62.4973 11.5868 62.5077 11.433V11.433ZM60.9773 7.53938L62.1008 6H63.2285L61.9708 7.53938H60.9773Z" fill="white"/>
<path d="M64.9707 8.35435H65.8966V9.10159H65.9684C66.0721 8.84219 66.2553 8.62232 66.4917 8.47354C66.7281 8.32476 67.0056 8.25472 67.2843 8.2735C67.4283 8.27156 67.5722 8.28502 67.7134 8.31366V9.26281C67.5369 9.2251 67.357 9.20562 67.1765 9.20468C67.0178 9.19044 66.858 9.20954 66.7072 9.26075C66.5564 9.31196 66.4179 9.39416 66.3008 9.50205C66.1836 9.60995 66.0903 9.74116 66.0269 9.88726C65.9635 10.0334 65.9313 10.1911 65.9325 10.3504V13.2278H64.9707L64.9707 8.35435Z" fill="white"/>
<path d="M68.5976 13.7155H69.5821C69.6635 14.069 70.0704 14.2973 70.7194 14.2973C71.5205 14.2973 71.995 13.9168 71.995 13.2727V12.3373H71.9232C71.7723 12.5991 71.552 12.8142 71.2866 12.9586C71.0212 13.1031 70.721 13.1713 70.4192 13.1559C69.1752 13.1559 68.4053 12.1941 68.4053 10.735C68.4053 9.24906 69.1837 8.27348 70.4287 8.27348C70.7381 8.26271 71.0444 8.33716 71.3143 8.4887C71.5842 8.64024 71.8073 8.86304 71.9591 9.13275H72.0352V8.35434H72.9568V13.2679C72.9568 14.3824 72.0838 15.0894 70.7056 15.0894C69.4881 15.0895 68.7002 14.5436 68.5976 13.7155ZM72.013 10.7303C72.013 9.75947 71.511 9.13751 70.6919 9.13751C69.8643 9.13751 69.3993 9.7595 69.3993 10.7303C69.3993 11.7016 69.8643 12.3236 70.6919 12.3236C71.5163 12.3235 72.013 11.7063 72.013 10.7303H72.013Z" fill="white"/>
<path d="M74.21 11.85C74.21 10.9728 74.8631 10.467 76.0226 10.3952L77.3426 10.3191V9.89842C77.3426 9.3837 77.0023 9.09305 76.3449 9.09305C75.808 9.09305 75.436 9.29017 75.3292 9.63472H74.3981C74.4964 8.79765 75.2838 8.26074 76.3893 8.26074C77.6111 8.26074 78.3002 8.86898 78.3002 9.89842V13.2282H77.3743V12.5433H77.2983C77.1438 12.789 76.9269 12.9893 76.6697 13.1237C76.4126 13.2581 76.1243 13.3219 75.8344 13.3085C75.6299 13.3298 75.4231 13.3079 75.2274 13.2444C75.0318 13.1809 74.8517 13.0771 74.6986 12.9397C74.5456 12.8022 74.423 12.6343 74.3388 12.4466C74.2547 12.2589 74.2108 12.0557 74.21 11.85V11.85ZM77.3426 11.4336V11.0261L76.1526 11.1022C75.4814 11.1471 75.177 11.3754 75.177 11.8051C75.177 12.2437 75.5575 12.4989 76.0807 12.4989C76.234 12.5144 76.3889 12.499 76.5361 12.4534C76.6833 12.4079 76.8198 12.3332 76.9375 12.2338C77.0553 12.1344 77.1518 12.0123 77.2214 11.8748C77.291 11.7374 77.3322 11.5873 77.3426 11.4336V11.4336Z" fill="white"/>
<path d="M79.8516 6.45068H80.8133V13.2265H79.8516V6.45068Z" fill="white"/>
<path d="M82.1505 10.7893C82.1199 10.4691 82.1565 10.1459 82.2581 9.84067C82.3596 9.53539 82.5239 9.25471 82.7403 9.01663C82.9567 8.77855 83.2204 8.58833 83.5146 8.45815C83.8089 8.32798 84.127 8.26074 84.4488 8.26074C84.7705 8.26074 85.0887 8.32798 85.3829 8.45815C85.6771 8.58833 85.9409 8.77855 86.1572 9.01663C86.3736 9.25471 86.5379 9.53539 86.6394 9.84067C86.741 10.1459 86.7776 10.4691 86.747 10.7893C86.7782 11.1099 86.742 11.4335 86.6407 11.7393C86.5394 12.0451 86.3753 12.3262 86.1588 12.5648C85.9424 12.8033 85.6784 12.994 85.3839 13.1244C85.0894 13.2549 84.7709 13.3223 84.4488 13.3223C84.1267 13.3223 83.8081 13.2549 83.5136 13.1244C83.2191 12.994 82.9551 12.8033 82.7387 12.5648C82.5222 12.3262 82.3581 12.0451 82.2568 11.7393C82.1555 11.4335 82.1193 11.1099 82.1505 10.7893ZM85.7577 10.7893C85.7577 9.73297 85.2832 9.11521 84.4504 9.11521C83.6143 9.11521 83.144 9.73297 83.144 10.7894C83.144 11.8542 83.6144 12.4672 84.4504 12.4672C85.2832 12.4672 85.7577 11.8499 85.7577 10.7893H85.7577Z" fill="white"/>
<path d="M94.8036 11.9115C94.6729 12.3569 94.3898 12.7421 94.0038 12.9999C93.6178 13.2576 93.1534 13.3714 92.6919 13.3214C92.3708 13.3299 92.0518 13.2684 91.7569 13.1412C91.4619 13.014 91.1982 12.8241 90.984 12.5848C90.7698 12.3454 90.6103 12.0624 90.5165 11.7552C90.4227 11.448 90.3968 11.1241 90.4407 10.8059C90.398 10.4868 90.4243 10.1622 90.5179 9.85409C90.6115 9.546 90.7702 9.26161 90.9832 9.02018C91.1963 8.77876 91.4587 8.58593 91.7528 8.45475C92.0469 8.32357 92.3657 8.2571 92.6877 8.25985C94.0437 8.25985 94.8617 9.18627 94.8617 10.7166V11.0522H91.4205V11.1061C91.4054 11.285 91.4279 11.465 91.4864 11.6346C91.545 11.8043 91.6384 11.9598 91.7606 12.0912C91.8828 12.2227 92.0311 12.3272 92.196 12.3979C92.361 12.4687 92.5389 12.5042 92.7183 12.5022C92.9484 12.5299 93.1815 12.4884 93.3879 12.3832C93.5944 12.278 93.7649 12.1138 93.8778 11.9114L94.8036 11.9115ZM91.4204 10.3409H93.8819C93.8941 10.1773 93.8718 10.0131 93.8167 9.8586C93.7615 9.70414 93.6747 9.56292 93.5617 9.44403C93.4487 9.32513 93.3121 9.23118 93.1607 9.16822C93.0093 9.10526 92.8463 9.07468 92.6823 9.07844C92.516 9.07635 92.3509 9.10758 92.1968 9.1703C92.0428 9.23301 91.9028 9.32593 91.7852 9.44359C91.6676 9.56125 91.5747 9.70126 91.5121 9.85537C91.4494 10.0095 91.4183 10.1746 91.4205 10.3409H91.4204Z" fill="white"/>
<path d="M96.1523 8.35424H97.0782V9.12842H97.1501C97.272 8.85036 97.4776 8.61727 97.7383 8.46164C97.999 8.306 98.3018 8.23557 98.6044 8.26017C98.8415 8.24234 99.0796 8.27809 99.301 8.36478C99.5225 8.45147 99.7215 8.58686 99.8835 8.76094C100.046 8.93502 100.166 9.14331 100.237 9.37039C100.307 9.59748 100.326 9.83753 100.291 10.0728V13.2276H99.3294V10.3143C99.3294 9.53111 98.9891 9.14164 98.2778 9.14164C98.1168 9.13414 97.9561 9.16154 97.8067 9.22196C97.6572 9.28239 97.5227 9.3744 97.4121 9.49171C97.3016 9.60901 97.2178 9.74882 97.1663 9.90156C97.1149 10.0543 97.0971 10.2164 97.1141 10.3766V13.2276H96.1523V8.35424Z" fill="white"/>
<path d="M108.544 11.9115C108.413 12.3569 108.13 12.7421 107.744 12.9999C107.358 13.2576 106.894 13.3714 106.432 13.3214C106.111 13.3299 105.792 13.2684 105.497 13.1412C105.202 13.014 104.938 12.8241 104.724 12.5848C104.51 12.3454 104.351 12.0624 104.257 11.7552C104.163 11.448 104.137 11.1241 104.181 10.8059C104.138 10.4868 104.165 10.1622 104.258 9.85409C104.352 9.546 104.51 9.26161 104.723 9.02018C104.937 8.77876 105.199 8.58593 105.493 8.45475C105.787 8.32357 106.106 8.2571 106.428 8.25985C107.784 8.25985 108.602 9.18627 108.602 10.7166V11.0522H105.161V11.1061C105.146 11.285 105.168 11.465 105.227 11.6346C105.285 11.8043 105.379 11.9598 105.501 12.0912C105.623 12.2227 105.771 12.3272 105.936 12.3979C106.101 12.4687 106.279 12.5042 106.459 12.5022C106.689 12.5299 106.922 12.4884 107.128 12.3832C107.335 12.278 107.505 12.1138 107.618 11.9114L108.544 11.9115ZM105.161 10.3409H107.622C107.634 10.1773 107.612 10.0131 107.557 9.8586C107.502 9.70414 107.415 9.56292 107.302 9.44403C107.189 9.32513 107.052 9.23118 106.901 9.16822C106.75 9.10526 106.587 9.07468 106.423 9.07844C106.256 9.07635 106.091 9.10758 105.937 9.17029C105.783 9.233 105.643 9.32592 105.525 9.44358C105.408 9.56124 105.315 9.70125 105.252 9.85536C105.19 10.0095 105.159 10.1746 105.161 10.3409H105.161Z" fill="white"/>
<path d="M109.938 6.45068H110.9V13.2265H109.938V6.45068Z" fill="white"/>
</svg>
