<svg width="34" height="33" viewBox="0 0 34 33" fill="none" xmlns="http://www.w3.org/2000/svg">
<g filter="url(#filter0_d)">
<path d="M12.2825 0.539917H22.2059C25.9624 0.539917 29.0198 3.59871 29.0199 7.35812V17.2872C29.0199 21.0467 25.9624 24.1054 22.2059 24.1054H12.2825C8.52601 24.1054 5.46857 21.0467 5.46857 17.2872V7.35812C5.46857 3.59872 8.52601 0.539917 12.2825 0.539917ZM22.2059 22.6342C25.1576 22.6342 27.55 20.24 27.55 17.2872V7.35812C27.55 4.40535 25.1576 2.01121 22.2059 2.01121H12.2825C9.33082 2.01121 6.93843 4.40535 6.93843 7.35812V17.2872C6.93843 20.24 9.33082 22.6342 12.2825 22.6342H22.2059Z" stroke="black"/>
<path d="M11.394 12.3231C11.394 9.09576 14.0189 6.46973 17.2438 6.46973C20.4687 6.46973 23.0937 9.09572 23.0937 12.3231C23.0937 15.5506 20.4687 18.1766 17.2438 18.1766C14.0189 18.1766 11.394 15.5505 11.394 12.3231ZM12.8638 12.3232C12.8638 14.7431 14.8245 16.7054 17.2438 16.7054C19.6631 16.7054 21.6238 14.7431 21.6238 12.3232C21.6238 9.90322 19.6631 7.94099 17.2438 7.94099C14.8246 7.94099 12.8638 9.90322 12.8638 12.3232Z" stroke="black"/>
<path d="M24.6282 6.01778C24.6282 6.58272 24.1706 7.0402 23.6066 7.0402C23.0427 7.0402 22.5851 6.58272 22.5851 6.01778C22.5851 5.45285 23.0427 4.99536 23.6066 4.99536C24.1706 4.99536 24.6282 5.45285 24.6282 6.01778Z" stroke="black"/>
</g>
<defs>
<filter id="filter0_d" x="0.968567" y="0.039917" width="32.5513" height="32.5655" filterUnits="userSpaceOnUse" color-interpolation-filters="sRGB">
<feFlood flood-opacity="0" result="BackgroundImageFix"/>
<feColorMatrix in="SourceAlpha" type="matrix" values="0 0 0 0 0 0 0 0 0 0 0 0 0 0 0 0 0 0 127 0"/>
<feOffset dy="4"/>
<feGaussianBlur stdDeviation="2"/>
<feColorMatrix type="matrix" values="0 0 0 0 0 0 0 0 0 0 0 0 0 0 0 0 0 0 0.25 0"/>
<feBlend mode="normal" in2="BackgroundImageFix" result="effect1_dropShadow"/>
<feBlend mode="normal" in="SourceGraphic" in2="effect1_dropShadow" result="shape"/>
</filter>
</defs>
</svg>
