<svg width="34" height="33" viewBox="0 0 34 33" fill="none" xmlns="http://www.w3.org/2000/svg">
<g filter="url(#filter0_d)">
<g clip-path="url(#clip0)">
<path d="M27.014 0H7.04582C5.67301 0 4.5498 1.12321 4.5498 2.49602V22.4642C4.5498 23.837 5.67301 24.9602 7.04582 24.9602H27.014C28.3868 24.9602 29.51 23.837 29.51 22.4642V2.49602C29.51 1.12321 28.3868 0 27.014 0ZM12.0379 21.2162H8.29383V9.98408H12.0379V21.2162ZM10.1658 7.86246C8.91784 7.86246 7.91943 6.86405 7.91943 5.61604C7.91943 4.36803 8.91784 3.36963 10.1658 3.36963C11.4139 3.36963 12.4123 4.36803 12.4123 5.61604C12.4123 6.86405 11.4139 7.86246 10.1658 7.86246ZM25.766 21.2162H22.0219V14.6017C22.0219 13.6034 21.1483 12.7297 20.1499 12.7297C19.1515 12.7297 18.2779 13.6034 18.2779 14.6017V21.2162H14.5339V9.98408H18.2779V11.4817C18.9019 10.4833 20.2747 9.73448 21.3979 9.73448C23.7692 9.73448 25.766 11.7313 25.766 14.1025V21.2162Z" fill="#A7A7A7"/>
</g>
<rect x="5.0498" y="0.5" width="23.9602" height="23.9602" stroke="black"/>
</g>
<defs>
<filter id="filter0_d" x="0.549805" y="0" width="32.9602" height="32.9602" filterUnits="userSpaceOnUse" color-interpolation-filters="sRGB">
<feFlood flood-opacity="0" result="BackgroundImageFix"/>
<feColorMatrix in="SourceAlpha" type="matrix" values="0 0 0 0 0 0 0 0 0 0 0 0 0 0 0 0 0 0 127 0"/>
<feOffset dy="4"/>
<feGaussianBlur stdDeviation="2"/>
<feColorMatrix type="matrix" values="0 0 0 0 0 0 0 0 0 0 0 0 0 0 0 0 0 0 0.25 0"/>
<feBlend mode="normal" in2="BackgroundImageFix" result="effect1_dropShadow"/>
<feBlend mode="normal" in="SourceGraphic" in2="effect1_dropShadow" result="shape"/>
</filter>
<clipPath id="clip0">
<rect x="4.5498" width="24.9602" height="24.9602" fill="white"/>
</clipPath>
</defs>
</svg>
