<svg width="145" height="31" viewBox="0 0 145 31" fill="none" xmlns="http://www.w3.org/2000/svg">
<path d="M67.2813 25.7212V17.7012C67.2813 16.4095 67.0271 15.4324 66.521 14.7654C66.0149 14.1006 65.2771 13.766 64.3054 13.766C63.2527 13.766 62.4159 14.1653 61.7951 14.9639C61.1765 15.7626 60.8661 16.9829 60.8661 18.6203V25.719H58.1713V17.8529C58.1713 16.4385 57.9171 15.4057 57.411 14.7498C56.9049 14.0939 56.1761 13.766 55.2268 13.766C54.1944 13.766 53.3576 14.1653 52.7165 14.9639C52.0755 15.7626 51.756 16.9829 51.756 18.6203V25.719H49.0613V11.7693H51.756V14.259C52.0237 13.4804 52.5208 12.8089 53.2429 12.2467C53.9649 11.6846 54.8534 11.4012 55.9084 11.4012C57.2108 11.4012 58.2208 11.6734 58.9451 12.2155C59.6671 12.7576 60.1642 13.4804 60.4319 14.3817C60.5759 13.9935 60.7941 13.6143 61.082 13.2439C61.3699 12.8759 61.7073 12.5568 62.0897 12.2914C62.4721 12.0259 62.9063 11.8095 63.3921 11.6466C63.878 11.4838 64.3998 11.4012 64.9577 11.4012C65.8867 11.4012 66.6717 11.544 67.3128 11.8318C67.9539 12.1196 68.469 12.5078 68.8626 12.9985C69.254 13.4893 69.5397 14.0738 69.7151 14.7498C69.8906 15.4257 69.9783 16.1441 69.9783 16.9003V25.719H67.2813V25.7212Z" fill="black"/>
<path d="M86.7094 11.769V25.7208H84.0438V23.2937C83.5895 24.1548 82.9124 24.8307 82.0149 25.3215C81.1151 25.8123 80.1502 26.0599 79.1177 26.0599C78.0425 26.0599 77.0618 25.8658 76.1732 25.4754C75.2847 25.0873 74.5267 24.5541 73.8969 23.8781C73.267 23.2022 72.7767 22.4236 72.4258 21.5424C72.0749 20.6612 71.8994 19.7287 71.8994 18.7449C71.8994 17.7611 72.0749 16.8241 72.4258 15.934C72.7767 15.0439 73.267 14.2586 73.8969 13.5827C74.5267 12.9067 75.287 12.3735 76.1732 11.9854C77.0618 11.5972 78.0425 11.4009 79.1177 11.4009C80.1502 11.4009 81.1174 11.6463 82.0149 12.1393C82.9124 12.6301 83.5895 13.306 84.0438 14.1672V11.769H86.7094ZM79.2729 23.6617C79.995 23.6617 80.6518 23.5279 81.2411 23.2624C81.8304 22.9969 82.3298 22.6422 82.7437 22.2028C83.1576 21.7633 83.477 21.2457 83.7042 20.6501C83.9314 20.0567 84.0461 19.4209 84.0461 18.7449C84.0461 18.069 83.9314 17.4332 83.7042 16.8397C83.477 16.2463 83.1576 15.7243 82.7437 15.2714C82.3298 14.8208 81.8304 14.4616 81.2411 14.1962C80.6518 13.9307 79.9972 13.7968 79.2729 13.7968C78.5486 13.7968 77.8985 13.9307 77.3204 14.1962C76.7423 14.4616 76.252 14.8208 75.8493 15.2714C75.4467 15.7221 75.1318 16.2441 74.9046 16.8397C74.6774 17.4332 74.5627 18.069 74.5627 18.7449C74.5627 19.4209 74.6752 20.0567 74.9046 20.6501C75.1318 21.2435 75.4467 21.761 75.8493 22.2028C76.252 22.6445 76.7423 22.9969 77.3204 23.2624C77.8985 23.5279 78.5486 23.6617 79.2729 23.6617Z" fill="black"/>
<path d="M103.659 11.769V25.7208H100.993V23.2937C100.539 24.1548 99.8617 24.8307 98.9642 25.3215C98.0645 25.8123 97.0995 26.0599 96.067 26.0599C94.9918 26.0599 94.0111 25.8658 93.1226 25.4754C92.2341 25.0873 91.476 24.5541 90.8462 23.8781C90.2164 23.2022 89.726 22.4236 89.3751 21.5424C89.0242 20.6612 88.8488 19.7287 88.8488 18.7449C88.8488 17.7611 89.0242 16.8241 89.3751 15.934C89.726 15.0439 90.2164 14.2586 90.8462 13.5827C91.476 12.9067 92.2363 12.3735 93.1226 11.9854C94.0111 11.5972 94.9918 11.4009 96.067 11.4009C97.0995 11.4009 98.0667 11.6463 98.9642 12.1393C99.8617 12.6301 100.539 13.306 100.993 14.1672V11.769H103.659ZM96.2222 23.6617C96.9443 23.6617 97.6011 23.5279 98.1905 23.2624C98.7798 22.9969 99.2792 22.6422 99.693 22.2028C100.107 21.7633 100.426 21.2457 100.654 20.6501C100.881 20.0567 100.995 19.4209 100.995 18.7449C100.995 18.069 100.881 17.4332 100.654 16.8397C100.426 16.2463 100.107 15.7243 99.693 15.2714C99.2792 14.8208 98.7798 14.4616 98.1905 14.1962C97.6011 13.9307 96.9465 13.7968 96.2222 13.7968C95.4979 13.7968 94.8479 13.9307 94.2698 14.1962C93.6917 14.4616 93.2013 14.8208 92.7987 15.2714C92.396 15.7221 92.0811 16.2441 91.8539 16.8397C91.6267 17.4332 91.512 18.069 91.512 18.7449C91.512 19.4209 91.6245 20.0567 91.8539 20.6501C92.0811 21.2435 92.396 21.761 92.7987 22.2028C93.2013 22.6445 93.6917 22.9969 94.2698 23.2624C94.8479 23.5279 95.4979 23.6617 96.2222 23.6617Z" fill="black"/>
<path d="M114.595 25.7212C114.327 25.7613 113.97 25.8037 113.527 25.8439C113.081 25.884 112.634 25.9063 112.179 25.9063C111.745 25.9063 111.271 25.8662 110.753 25.7837C110.236 25.7011 109.757 25.5026 109.311 25.1835C108.866 24.8668 108.495 24.3804 108.196 23.7246C107.896 23.0687 107.746 22.1674 107.746 21.0207V14.0113H105.143V11.7693H107.746V7.06665H110.44V11.7693H114.096V14.0136H110.44V20.4162C110.44 21.0899 110.497 21.6253 110.611 22.0246C110.724 22.424 110.886 22.7296 111.093 22.9438C111.3 23.1579 111.543 23.2962 111.822 23.3565C112.101 23.4189 112.415 23.4479 112.766 23.4479C113.054 23.4479 113.38 23.4479 113.743 23.4479C114.102 23.4479 114.388 23.4167 114.595 23.3565V25.7212Z" fill="black"/>
<path d="M116.548 23.7533C116.548 23.1398 116.755 22.6223 117.167 22.2006C117.58 21.7812 118.087 21.5715 118.685 21.5715C119.283 21.5715 119.801 21.7812 120.235 22.2006C120.669 22.62 120.885 23.1376 120.885 23.7533C120.885 24.3467 120.669 24.8487 120.235 25.2592C119.801 25.6696 119.285 25.8749 118.685 25.8749C118.087 25.8749 117.58 25.6696 117.167 25.2592C116.755 24.8487 116.548 24.349 116.548 23.7533Z" fill="#FE3618"/>
<path d="M137.183 11.7693V25.7212H134.518V23.294C134.064 24.1551 133.386 24.8311 132.489 25.3219C131.591 25.8127 130.624 26.0603 129.592 26.0603C128.517 26.0603 127.536 25.8662 126.647 25.4758C125.759 25.0876 124.998 24.5545 124.369 23.8785C123.739 23.2026 123.248 22.424 122.898 21.5428C122.547 20.6616 122.371 19.7291 122.371 18.7453C122.371 17.7615 122.547 16.8245 122.898 15.9344C123.248 15.0443 123.739 14.259 124.369 13.583C124.998 12.9071 125.759 12.3739 126.647 11.9857C127.536 11.5976 128.517 11.4012 129.592 11.4012C130.624 11.4012 131.591 11.6466 132.489 12.1397C133.386 12.6305 134.064 13.3064 134.518 14.1675V11.7693H137.183ZM129.747 23.6621C130.469 23.6621 131.126 23.5283 131.715 23.2628C132.304 22.9973 132.804 22.6426 133.218 22.2031C133.632 21.7636 133.951 21.2461 134.178 20.6504C134.405 20.057 134.52 19.4212 134.52 18.7453C134.52 18.0693 134.405 17.4335 134.178 16.8401C133.951 16.2467 133.632 15.7247 133.218 15.2718C132.804 14.8212 132.304 14.462 131.715 14.1965C131.126 13.9311 130.471 13.7972 129.747 13.7972C129.023 13.7972 128.373 13.9311 127.794 14.1965C127.216 14.462 126.726 14.8212 126.323 15.2718C125.921 15.7224 125.606 16.2445 125.379 16.8401C125.151 17.4335 125.037 18.0693 125.037 18.7453C125.037 19.4212 125.149 20.057 125.379 20.6504C125.606 21.2438 125.921 21.7614 126.323 22.2031C126.726 22.6448 127.216 22.9973 127.794 23.2628C128.373 23.5283 129.025 23.6621 129.747 23.6621Z" fill="black"/>
<path d="M139.662 6.48196C139.662 5.88855 139.869 5.37545 140.283 4.94489C140.697 4.51433 141.201 4.30017 141.801 4.30017C142.4 4.30017 142.917 4.51433 143.351 4.94489C143.785 5.37545 144.001 5.88855 144.001 6.48196C144.001 7.0776 143.785 7.57732 143.351 7.9878C142.917 8.39828 142.4 8.60129 141.801 8.60129C141.203 8.60129 140.697 8.39605 140.283 7.9878C139.869 7.57955 139.662 7.0776 139.662 6.48196ZM140.468 11.7691H143.162V25.721H140.468V11.7691Z" fill="black"/>
<path d="M11.978 30.0777C18.5932 30.0777 23.956 24.7592 23.956 18.1984C23.956 11.6376 18.5932 6.31897 11.978 6.31897C5.36272 6.31897 0 11.6376 0 18.1984C0 24.7592 5.36272 30.0777 11.978 30.0777Z" fill="#FE3618"/>
<path opacity="0.82" d="M32.8228 15.1796C32.8228 8.61883 27.4601 3.3003 20.8449 3.3003C14.2297 3.3003 8.86706 8.61883 8.86706 15.1796C8.86707 21.7403 14.2297 27.0588 20.8449 27.0588C27.4601 27.0588 32.8228 21.7403 32.8228 15.1796Z" fill="#023C68"/>
<path opacity="0.64" d="M41.6883 12.1635C41.6883 5.60284 36.3257 0.284352 29.7106 0.284352C23.0954 0.284352 17.7328 5.60285 17.7328 12.1635C17.7328 18.7242 23.0954 24.0427 29.7106 24.0427C36.3257 24.0427 41.6883 18.7242 41.6883 12.1635Z" fill="#03749D"/>
</svg>
