<svg width="135" height="40" viewBox="0 0 135 40" fill="none" xmlns="http://www.w3.org/2000/svg">
<path d="M130 40H5C2.25 40 0 37.75 0 35V5C0 2.25 2.25 0 5 0H130C132.75 0 135 2.25 135 5V35C135 37.75 132.75 40 130 40Z" fill="black"/>
<path d="M130 0.8C132.32 0.8 134.2 2.68 134.2 5V35C134.2 37.32 132.32 39.2 130 39.2H5C2.68 39.2 0.8 37.32 0.8 35V5C0.8 2.68 2.68 0.8 5 0.8H130ZM130 0H5C2.25 0 0 2.25 0 5V35C0 37.75 2.25 40 5 40H130C132.75 40 135 37.75 135 35V5C135 2.25 132.75 0 130 0Z" fill="#A7A6A6"/>
<path d="M68.14 21.7498C65.79 21.7498 63.87 23.5398 63.87 25.9998C63.87 28.4498 65.79 30.2498 68.14 30.2498C70.49 30.2498 72.41 28.4498 72.41 25.9998C72.41 23.5398 70.49 21.7498 68.14 21.7498ZM68.14 28.5798C66.85 28.5798 65.74 27.5198 65.74 25.9998C65.74 24.4698 66.85 23.4198 68.14 23.4198C69.43 23.4198 70.54 24.4698 70.54 25.9998C70.54 27.5198 69.42 28.5798 68.14 28.5798ZM58.82 21.7498C56.47 21.7498 54.55 23.5398 54.55 25.9998C54.55 28.4498 56.47 30.2498 58.82 30.2498C61.17 30.2498 63.09 28.4498 63.09 25.9998C63.09 23.5398 61.17 21.7498 58.82 21.7498ZM58.82 28.5798C57.53 28.5798 56.42 27.5198 56.42 25.9998C56.42 24.4698 57.53 23.4198 58.82 23.4198C60.11 23.4198 61.22 24.4698 61.22 25.9998C61.22 27.5198 60.11 28.5798 58.82 28.5798ZM47.74 23.0598V24.8598H52.06C51.93 25.8698 51.59 26.6198 51.08 27.1298C50.45 27.7598 49.47 28.4498 47.75 28.4498C45.09 28.4498 43.01 26.3098 43.01 23.6498C43.01 20.9898 45.09 18.8498 47.75 18.8498C49.18 18.8498 50.23 19.4098 51 20.1398L52.27 18.8698C51.19 17.8398 49.76 17.0498 47.74 17.0498C44.1 17.0498 41.04 20.0098 41.04 23.6598C41.04 27.2998 44.1 30.2698 47.74 30.2698C49.71 30.2698 51.19 29.6298 52.35 28.4198C53.54 27.2298 53.91 25.5498 53.91 24.1998C53.91 23.7798 53.88 23.3898 53.81 23.0698H47.74V23.0598ZM93.05 24.4598C92.7 23.5098 91.62 21.7498 89.41 21.7498C87.22 21.7498 85.4 23.4698 85.4 25.9998C85.4 28.3798 87.2 30.2498 89.62 30.2498C91.57 30.2498 92.7 29.0598 93.16 28.3698L91.71 27.3998C91.23 28.1098 90.57 28.5798 89.62 28.5798C88.67 28.5798 87.99 28.1398 87.56 27.2898L93.25 24.9398L93.05 24.4598ZM87.25 25.8798C87.2 24.2398 88.52 23.3998 89.47 23.3998C90.21 23.3998 90.84 23.7698 91.05 24.2998L87.25 25.8798ZM82.63 29.9998H84.5V17.4998H82.63V29.9998ZM79.57 22.6998H79.5C79.08 22.1998 78.28 21.7498 77.26 21.7498C75.13 21.7498 73.18 23.6198 73.18 26.0198C73.18 28.3998 75.13 30.2598 77.26 30.2598C78.27 30.2598 79.08 29.8098 79.5 29.2898H79.56V29.8998C79.56 31.5298 78.69 32.3998 77.29 32.3998C76.15 32.3998 75.44 31.5798 75.15 30.8898L73.52 31.5698C73.99 32.6998 75.23 34.0798 77.29 34.0798C79.48 34.0798 81.33 32.7898 81.33 29.6498V22.0098H79.56V22.6998H79.57ZM77.42 28.5798C76.13 28.5798 75.05 27.4998 75.05 26.0198C75.05 24.5198 76.13 23.4298 77.42 23.4298C78.69 23.4298 79.69 24.5298 79.69 26.0198C79.7 27.4998 78.7 28.5798 77.42 28.5798ZM101.81 17.4998H97.34V29.9998H99.21V25.2598H101.82C103.89 25.2598 105.92 23.7598 105.92 21.3798C105.92 18.9998 103.87 17.4998 101.81 17.4998ZM101.85 23.5198H99.2V19.2298H101.85C103.25 19.2298 104.04 20.3898 104.04 21.3698C104.04 22.3498 103.25 23.5198 101.85 23.5198ZM113.39 21.7298C112.04 21.7298 110.64 22.3298 110.06 23.6398L111.72 24.3298C112.07 23.6398 112.73 23.4098 113.42 23.4098C114.38 23.4098 115.37 23.9898 115.38 25.0198V25.1498C115.04 24.9598 114.32 24.6698 113.43 24.6698C111.64 24.6698 109.83 25.6498 109.83 27.4798C109.83 29.1498 111.29 30.2298 112.93 30.2298C114.18 30.2298 114.88 29.6698 115.31 29.0098H115.37V29.9798H117.17V25.1898C117.18 22.9698 115.52 21.7298 113.39 21.7298ZM113.16 28.5798C112.55 28.5798 111.7 28.2698 111.7 27.5198C111.7 26.5598 112.76 26.1898 113.68 26.1898C114.5 26.1898 114.89 26.3698 115.38 26.6098C115.24 27.7598 114.24 28.5798 113.16 28.5798ZM123.74 21.9998L121.6 27.4198H121.54L119.32 21.9998H117.31L120.64 29.5798L118.74 33.7898H120.69L125.82 21.9998H123.74ZM106.94 29.9998H108.81V17.4998H106.94V29.9998Z" fill="white"/>
<path d="M10.4405 7.55047C10.1505 7.86047 9.98047 8.33047 9.98047 8.95047V31.0505C9.98047 31.6705 10.1505 32.1505 10.4405 32.4505L10.5105 32.5205L22.8905 20.1405V20.0005V19.8505L10.5105 7.48047L10.4405 7.55047Z" fill="#5BC9F4"/>
<path d="M27.0109 24.2702L22.8809 20.1402V20.0002V19.8502L27.0109 15.7202L27.1009 15.7702L32.0009 18.5602C33.4009 19.3502 33.4009 20.6502 32.0009 21.4502L27.1109 24.2302L27.0109 24.2702Z" fill="url(#paint0_linear)"/>
<path d="M27.1104 24.22L22.8904 20L10.4404 32.45C10.9004 32.94 11.6604 33 12.5204 32.51L27.1104 24.22Z" fill="url(#paint1_linear)"/>
<path d="M27.1107 15.7802L12.5107 7.49024C11.6507 7.00024 10.8907 7.06024 10.4307 7.55024L22.8907 20.0002L27.1107 15.7802Z" fill="url(#paint2_linear)"/>
<path d="M41.2803 13.0005V7.00049H43.1103C44.0303 7.00049 44.7703 7.28049 45.3203 7.83049C45.8703 8.39049 46.1503 9.11049 46.1503 10.0005C46.1503 10.8905 45.8703 11.6105 45.3203 12.1705C44.7703 12.7205 44.0403 13.0005 43.1203 13.0005H41.2803ZM42.0503 12.2605H43.1103C43.8003 12.2605 44.3503 12.0605 44.7603 11.6605C45.1703 11.2605 45.3703 10.7105 45.3703 9.99049C45.3703 9.28049 45.1703 8.73049 44.7603 8.33049C44.3503 7.93049 43.8103 7.73049 43.1103 7.73049H42.0503V12.2605Z" fill="white" stroke="white" stroke-width="0.2" stroke-miterlimit="10"/>
<path d="M47.2402 13.0005V7.00049H48.0102V13.0005H47.2402Z" fill="white" stroke="white" stroke-width="0.2" stroke-miterlimit="10"/>
<path d="M51.0805 13.1304C50.6405 13.1304 50.2205 12.9904 49.8005 12.7004C49.3805 12.4104 49.1105 12.0204 48.9805 11.5004L49.6805 11.2204C49.7605 11.5504 49.9305 11.8304 50.1905 12.0504C50.4505 12.2804 50.7405 12.3904 51.0705 12.3904C51.4005 12.3904 51.6905 12.3004 51.9305 12.1304C52.1705 11.9504 52.2905 11.7204 52.2905 11.4104C52.2905 11.0804 52.1705 10.8204 51.9305 10.6404C51.6905 10.4604 51.3205 10.2904 50.8005 10.1304C50.2705 9.96035 49.8705 9.75035 49.5905 9.48035C49.3205 9.21035 49.1805 8.88035 49.1805 8.46035C49.1805 8.03035 49.3505 7.66035 49.6905 7.34035C50.0305 7.02035 50.4805 6.86035 51.0205 6.86035C51.5305 6.86035 51.9405 6.99035 52.2605 7.24035C52.5805 7.49035 52.7905 7.77035 52.8805 8.07035L52.1805 8.36035C52.1305 8.17035 52.0105 7.99035 51.8105 7.83035C51.6105 7.67035 51.3605 7.59035 51.0405 7.59035C50.7405 7.59035 50.4905 7.67035 50.2805 7.84035C50.0705 8.01035 49.9705 8.21035 49.9705 8.46035C49.9705 8.68035 50.0705 8.87035 50.2605 9.03035C50.4505 9.18035 50.7405 9.32035 51.1105 9.44035C51.4105 9.54035 51.6505 9.63035 51.8505 9.72035C52.0505 9.81035 52.2505 9.93035 52.4505 10.0804C52.6505 10.2304 52.8105 10.4104 52.9105 10.6304C53.0105 10.8504 53.0705 11.1104 53.0705 11.4004C53.0705 11.6904 53.0105 11.9504 52.8905 12.1804C52.7705 12.4104 52.6105 12.5904 52.4105 12.7204C52.2105 12.8504 52.0005 12.9604 51.7705 13.0304C51.5505 13.1004 51.3205 13.1304 51.0805 13.1304Z" fill="white" stroke="white" stroke-width="0.2" stroke-miterlimit="10"/>
<path d="M54.9604 13.0005H54.1904V7.00049H56.2304C56.7404 7.00049 57.1804 7.17049 57.5504 7.51049C57.9204 7.85049 58.1104 8.27049 58.1104 8.79049C58.1104 9.30049 57.9204 9.73049 57.5504 10.0705C57.1804 10.4105 56.7404 10.5805 56.2304 10.5805H54.9604V13.0005ZM54.9604 9.83049H56.2504C56.5704 9.83049 56.8304 9.72049 57.0304 9.50049C57.2304 9.28049 57.3204 9.04049 57.3204 8.78049C57.3204 8.52049 57.2204 8.28049 57.0304 8.06049C56.8304 7.84049 56.5704 7.73049 56.2504 7.73049H54.9604V9.83049Z" fill="white" stroke="white" stroke-width="0.2" stroke-miterlimit="10"/>
<path d="M63.9902 12.2201C63.4002 12.8301 62.6702 13.1301 61.7902 13.1301C60.9102 13.1301 60.1802 12.8301 59.5902 12.2201C59.0002 11.6201 58.7002 10.8801 58.7002 10.0001C58.7002 9.12012 58.9902 8.38012 59.5802 7.78012C60.1702 7.17012 60.9002 6.87012 61.7802 6.87012C62.6502 6.87012 63.3802 7.17012 63.9802 7.78012C64.5702 8.39012 64.8702 9.13012 64.8702 10.0001C64.8702 10.8801 64.5702 11.6201 63.9902 12.2201ZM60.1602 11.7201C60.6002 12.1701 61.1502 12.3901 61.7902 12.3901C62.4302 12.3901 62.9802 12.1701 63.4202 11.7201C63.8602 11.2701 64.0902 10.7001 64.0902 10.0001C64.0902 9.30012 63.8702 8.73012 63.4202 8.28012C62.9802 7.83012 62.4302 7.61012 61.7902 7.61012C61.1502 7.61012 60.6002 7.83012 60.1602 8.28012C59.7202 8.73012 59.4902 9.30012 59.4902 10.0001C59.4902 10.7001 59.7102 11.2701 60.1602 11.7201Z" fill="white" stroke="white" stroke-width="0.2" stroke-miterlimit="10"/>
<path d="M65.9502 13.0005V7.00049H66.8902L69.8102 11.6705H69.8402L69.8102 10.5105V7.00049H70.5802V13.0005H69.7802L66.7302 8.11049H66.7002L66.7302 9.27049V13.0005H65.9502Z" fill="white" stroke="white" stroke-width="0.2" stroke-miterlimit="10"/>
<path d="M71.9502 13.0005V7.00049H72.7202V13.0005H71.9502Z" fill="white" stroke="white" stroke-width="0.2" stroke-miterlimit="10"/>
<path d="M74.1006 13.0005V7.00049H76.2706C76.7406 7.00049 77.1506 7.16049 77.4906 7.46049C77.8306 7.77049 78.0106 8.16049 78.0106 8.63049C78.0106 8.92049 77.9406 9.17049 77.7906 9.38049C77.6406 9.60049 77.4506 9.76049 77.2006 9.87049V9.90049C77.5006 10.0005 77.7406 10.1705 77.9306 10.4205C78.1206 10.6705 78.2206 10.9505 78.2206 11.2805C78.2206 11.7705 78.0406 12.1805 77.6806 12.5005C77.3006 12.8405 76.8806 13.0005 76.3806 13.0005H74.1006ZM74.8706 9.57049H76.2706C76.5606 9.57049 76.7906 9.47049 76.9706 9.28049C77.1506 9.09049 77.2306 8.88049 77.2306 8.65049C77.2306 8.42049 77.1506 8.21049 76.9706 8.02049C76.8006 7.83049 76.5806 7.73049 76.3006 7.73049H74.8706V9.57049ZM74.8706 12.2605H76.4206C76.7206 12.2605 76.9606 12.1605 77.1406 11.9505C77.3206 11.7405 77.4206 11.5205 77.4206 11.2705C77.4206 11.0205 77.3306 10.8005 77.1306 10.6005C76.9406 10.4005 76.6906 10.2905 76.3806 10.2905H74.8606V12.2605H74.8706Z" fill="white" stroke="white" stroke-width="0.2" stroke-miterlimit="10"/>
<path d="M79.2402 13.0005V7.00049H80.0102V12.2605H82.6102V13.0005H79.2402Z" fill="white" stroke="white" stroke-width="0.2" stroke-miterlimit="10"/>
<path d="M87.0801 7.74049H84.3501V9.64049H86.8101V10.3605H84.3501V12.2605H87.0801V13.0005H83.5801V7.00049H87.0801V7.74049Z" fill="white" stroke="white" stroke-width="0.2" stroke-miterlimit="10"/>
<path d="M93.8105 7.74049H91.0806V9.64049H93.5406V10.3605H91.0806V12.2605H93.8105V13.0005H90.3105V7.00049H93.8105V7.74049Z" fill="white" stroke="white" stroke-width="0.2" stroke-miterlimit="10"/>
<path d="M95.0107 13.0005V7.00049H95.9507L98.8707 11.6705H98.9007L98.8707 10.5105V7.00049H99.6407V13.0005H98.8407L95.7907 8.11049H95.7607L95.7907 9.27049V13.0005H95.0107Z" fill="white" stroke="white" stroke-width="0.2" stroke-miterlimit="10"/>
<defs>
<linearGradient id="paint0_linear" x1="31.0897" y1="20.0005" x2="6.91286" y2="20.0005" gradientUnits="userSpaceOnUse">
<stop stop-color="#FEE000"/>
<stop offset="0.1941" stop-color="#FCCF0B"/>
<stop offset="0.5469" stop-color="#FAB318"/>
<stop offset="0.8279" stop-color="#F9A21B"/>
<stop offset="1" stop-color="#F99B1C"/>
</linearGradient>
<linearGradient id="paint1_linear" x1="24.815" y1="22.2931" x2="2.07553" y2="45.0326" gradientUnits="userSpaceOnUse">
<stop stop-color="#EF4547"/>
<stop offset="1" stop-color="#C6186D"/>
</linearGradient>
<linearGradient id="paint2_linear" x1="1.97446" y1="-5.13386" x2="20.5407" y2="13.4323" gradientUnits="userSpaceOnUse">
<stop stop-color="#279E6F"/>
<stop offset="0.3168" stop-color="#4DAB6D"/>
<stop offset="0.7398" stop-color="#6ABA6A"/>
<stop offset="1" stop-color="#74C169"/>
</linearGradient>
</defs>
</svg>
