<svg width="39" height="33" viewBox="0 0 39 33" fill="none" xmlns="http://www.w3.org/2000/svg">
<g filter="url(#filter0_d)">
<path d="M31.4359 3.28069L30.1058 4.55849L31.8992 4.12742C32.4475 3.99561 32.9855 3.82616 33.5099 3.61993C32.8976 4.46142 32.1833 5.21904 31.3811 5.87748C31.0076 6.18401 30.7907 6.63756 30.7908 7.1208C30.7908 7.12084 30.7908 7.12088 30.7908 7.12091V7.21927C30.7908 9.22447 30.4052 11.331 29.6734 13.3073C28.9056 15.3808 27.7994 17.2529 26.3864 18.8735C24.8703 20.6123 23.0693 21.9759 21.0327 22.9297C18.8119 23.9696 16.3474 24.5 13.7026 24.5C10.6928 24.5 7.72895 23.692 5.1305 22.1633L5.13041 22.1632C5.12847 22.1621 5.12631 22.1604 5.12422 22.158C5.12317 22.1568 5.12227 22.1556 5.12151 22.1544L5.85313 22.1549H5.85342C8.32747 22.1549 10.7063 21.4237 12.7479 20.0382L13.7853 19.3342L12.5482 19.1311C10.4624 18.7886 8.70124 17.325 7.96452 15.3171C8.26244 15.3609 8.56279 15.3831 8.86083 15.3831C8.91016 15.3831 8.95971 15.3825 9.00951 15.3813L9.2071 14.4276C7.20333 13.5021 5.83687 11.4869 5.76263 9.19148C6.18843 9.40529 6.63811 9.56914 7.10001 9.67986L8.83076 10.0947L7.56926 8.83923C6.45282 7.72813 5.80893 6.20289 5.80893 4.58224C5.80893 3.6066 6.04466 2.64722 6.4917 1.79254C9.46059 5.37311 13.6133 7.58135 18.2094 8.01318C18.2326 8.0154 18.2561 8.01652 18.2794 8.01652C18.494 8.01652 18.6934 7.92217 18.8309 7.7664L18.8312 7.76606C18.9069 7.68004 19.0423 7.48209 19.0105 7.19833L19.0105 7.19822C18.9295 6.47799 18.9761 5.73418 19.1521 4.98657L19.1521 4.98655C19.6144 3.02186 21.0886 1.43064 22.9932 0.833432C23.6164 0.638049 24.2481 0.539917 24.8709 0.539917C26.3091 0.539917 27.6945 1.06827 28.7724 2.02867L29.0686 1.69625L28.7725 2.02867C29.0147 2.24446 29.3268 2.36686 29.6529 2.36686C29.7606 2.36686 29.868 2.35338 29.9724 2.32667C30.9731 2.07062 31.937 1.68859 32.8435 1.18911C32.5275 1.98196 32.0465 2.6942 31.4359 3.28069Z" stroke="black"/>
</g>
<defs>
<filter id="filter0_d" x="0.618774" y="0.039917" width="37.6822" height="32.96" filterUnits="userSpaceOnUse" color-interpolation-filters="sRGB">
<feFlood flood-opacity="0" result="BackgroundImageFix"/>
<feColorMatrix in="SourceAlpha" type="matrix" values="0 0 0 0 0 0 0 0 0 0 0 0 0 0 0 0 0 0 127 0"/>
<feOffset dy="4"/>
<feGaussianBlur stdDeviation="2"/>
<feColorMatrix type="matrix" values="0 0 0 0 0 0 0 0 0 0 0 0 0 0 0 0 0 0 0.25 0"/>
<feBlend mode="normal" in2="BackgroundImageFix" result="effect1_dropShadow"/>
<feBlend mode="normal" in="SourceGraphic" in2="effect1_dropShadow" result="shape"/>
</filter>
</defs>
</svg>
