<svg width="34" height="33" viewBox="0 0 34 33" fill="none" xmlns="http://www.w3.org/2000/svg">
<g filter="url(#filter0_d)">
<path d="M5.06363 24.1056L5.07002 24.1328L5.17808 24.5923C4.83813 24.6722 4.52949 24.3748 4.59999 24.0352L5.06363 24.1056ZM5.06363 24.1056C5.06357 24.1056 5.06359 24.1056 5.06369 24.1056L5.06363 24.1056ZM6.39284 17.858L6.42878 17.6849L6.34788 17.5276C5.53429 15.9463 5.07298 14.1568 5.06719 12.2596C5.04819 6.03449 9.99428 0.849959 16.2662 0.553566L16.2426 0.0541465L16.2662 0.553566C23.1627 0.227592 28.8265 5.78678 28.6126 12.5972C28.413 18.9488 23.0719 24.0028 16.6594 23.9056C14.8422 23.878 13.1263 23.4417 11.5987 22.6865L11.4376 22.6068L11.2627 22.648L5.0977 24.0976L6.39284 17.858ZM5.08955 24.1368L5.07008 24.1328L5.08955 24.1368L5.08957 24.1368C5.08956 24.1368 5.08956 24.1368 5.08955 24.1368ZM12.3433 21.2164L12.5613 20.7754L12.3433 21.2164C13.7482 21.911 15.2634 22.2632 16.8428 22.2632C19.5416 22.2632 22.0821 21.2191 23.9916 19.3239C25.885 17.4448 26.9547 14.8825 26.9548 12.2232C26.9547 9.54129 25.9013 7.01811 23.9917 5.12283L23.6466 5.47049L23.9917 5.12282C22.0822 3.22773 19.5418 2.18367 16.843 2.18361C14.1671 2.18361 11.5872 3.24382 9.69391 5.12288L9.69391 5.12289C7.78429 7.01823 6.73089 9.54141 6.73089 12.2234C6.73089 13.8285 7.10111 15.3641 7.83101 16.7828L7.83102 16.7828L8.17543 17.4522L7.41135 21.1335L7.25198 21.9013L8.01537 21.7218L11.6411 20.8693L12.3433 21.2164Z" stroke="black"/>
<path d="M19.9016 14.7696L19.9016 14.7696L19.3201 15.3576C18.9352 15.7468 18.3502 15.8736 17.8366 15.6673L17.8365 15.6673C17.1887 15.4071 16.2613 14.7212 15.4502 14.0092C14.638 13.2962 13.841 12.4677 13.4949 11.8695L19.9016 14.7696ZM19.9016 14.7696C20.0005 14.6696 20.1482 14.6303 20.2861 14.6696C20.2861 14.6696 20.2861 14.6696 20.2861 14.6696M19.9016 14.7696L20.2861 14.6696M13.6017 10.3591L13.6017 10.3591L14.1094 9.70725C14.1094 9.70725 14.1094 9.70725 14.1094 9.70725C14.1951 9.59725 14.2127 9.45057 14.1565 9.32436L14.1565 9.32434L13.1561 7.07873C13.1561 7.07872 13.1561 7.07872 13.1561 7.07872C13.0533 6.84811 12.7506 6.77492 12.5497 6.94354L13.6017 10.3591ZM13.6017 10.3591C13.2648 10.7918 13.2167 11.3887 13.4949 11.8695L13.6017 10.3591ZM11.1789 8.95279L11.1789 8.9528C11.0319 10.3936 11.633 12.3342 14.2688 14.7758L13.929 15.1426L14.2688 14.7758C17.3072 17.5904 19.6421 17.8796 21.0605 17.5386L21.0605 17.5386C21.4061 17.4555 21.7458 17.2391 22.0671 16.9328C22.3863 16.6286 22.6625 16.2596 22.8824 15.9156L11.1789 8.95279ZM11.1789 8.95279C11.2145 8.60404 11.3833 8.24173 11.6453 7.8839M11.1789 8.95279L11.6453 7.8839M20.2861 14.6696L22.6638 15.3472C22.9132 15.4183 23.0184 15.7027 22.8824 15.9156L20.2861 14.6696ZM11.6453 7.8839C11.9054 7.52873 12.2361 7.20679 12.5497 6.94355L11.6453 7.8839Z" stroke="black"/>
</g>
<defs>
<filter id="filter0_d" x="0.567139" y="0.039917" width="32.5513" height="32.5655" filterUnits="userSpaceOnUse" color-interpolation-filters="sRGB">
<feFlood flood-opacity="0" result="BackgroundImageFix"/>
<feColorMatrix in="SourceAlpha" type="matrix" values="0 0 0 0 0 0 0 0 0 0 0 0 0 0 0 0 0 0 127 0"/>
<feOffset dy="4"/>
<feGaussianBlur stdDeviation="2"/>
<feColorMatrix type="matrix" values="0 0 0 0 0 0 0 0 0 0 0 0 0 0 0 0 0 0 0.25 0"/>
<feBlend mode="normal" in2="BackgroundImageFix" result="effect1_dropShadow"/>
<feBlend mode="normal" in="SourceGraphic" in2="effect1_dropShadow" result="shape"/>
</filter>
</defs>
</svg>
